<svg id="组_36735" data-name="组 36735" xmlns="http://www.w3.org/2000/svg" xmlns:xlink="http://www.w3.org/1999/xlink" width="26" height="22" viewBox="0 0 26 22">
  <defs>
    <linearGradient id="linear-gradient" x1="0.125" y1="0.802" x2="0.849" y2="0.29" gradientUnits="objectBoundingBox">
      <stop offset="0" stop-color="#bed8ff"/>
      <stop offset="1" stop-color="#ffcbfc"/>
    </linearGradient>
    <linearGradient id="linear-gradient-2" x1="1" y1="0.662" x2="0" y2="0.382" gradientUnits="objectBoundingBox">
      <stop offset="0" stop-color="#ba40ff"/>
      <stop offset="1" stop-color="#0a43ff"/>
    </linearGradient>
    <linearGradient id="linear-gradient-3" y1="0.583" x2="1" y2="0.335" gradientUnits="objectBoundingBox">
      <stop offset="0" stop-color="#00439b"/>
      <stop offset="1" stop-color="#04023b"/>
    </linearGradient>
  </defs>
  <g id="路径_31577" data-name="路径 31577" transform="translate(0 0)" fill="url(#linear-gradient)">
    <path d="M 15.59999465942383 21.49998474121094 L 10.39999389648438 21.49998474121094 C 4.941124439239502 21.49998474121094 0.5000042915344238 17.1692943572998 0.5000042915344238 11.8461446762085 L 0.5000042915344238 10.15384387969971 C 0.5000042915344238 4.830694198608398 4.941124439239502 0.5000042915344238 10.39999389648438 0.5000042915344238 L 15.59999465942383 0.5000042915344238 C 21.05886459350586 0.5000042915344238 25.49998474121094 4.830694198608398 25.49998474121094 10.15384387969971 L 25.49998474121094 11.8461446762085 C 25.49998474121094 17.1692943572998 21.05886459350586 21.49998474121094 15.59999465942383 21.49998474121094 Z" stroke="none"/>
    <path d="M 10.39999389648438 1.000003814697266 C 5.216823577880859 1.000003814697266 1.000003814697266 5.106403350830078 1.000003814697266 10.15384387969971 L 1.000003814697266 11.8461446762085 C 1.000003814697266 16.89358520507812 5.216823577880859 20.99998474121094 10.39999389648438 20.99998474121094 L 15.59999465942383 20.99998474121094 C 20.78316497802734 20.99998474121094 24.99998474121094 16.89358520507812 24.99998474121094 11.8461446762085 L 24.99998474121094 10.15384387969971 C 24.99998474121094 5.106403350830078 20.78316497802734 1.000003814697266 15.59999465942383 1.000003814697266 L 10.39999389648438 1.000003814697266 M 10.39999389648438 3.814697265625e-06 L 15.59999465942383 3.814697265625e-06 C 21.34375381469727 3.814697265625e-06 25.99998474121094 4.546024322509766 25.99998474121094 10.15384387969971 L 25.99998474121094 11.8461446762085 C 25.99998474121094 17.45396423339844 21.34375381469727 21.99998474121094 15.59999465942383 21.99998474121094 L 10.39999389648438 21.99998474121094 C 4.656234741210938 21.99998474121094 3.814697265625e-06 17.45396423339844 3.814697265625e-06 11.8461446762085 L 3.814697265625e-06 10.15384387969971 C 3.814697265625e-06 4.546024322509766 4.656234741210938 3.814697265625e-06 10.39999389648438 3.814697265625e-06 Z" stroke="none" fill="#fff"/>
  </g>
  <rect id="矩形_28074" data-name="矩形 28074" width="20" height="14" rx="7" transform="translate(3 4.042)" fill="url(#linear-gradient-2)"/>
  <rect id="矩形_28075" data-name="矩形 28075" width="18" height="12" rx="6" transform="translate(4 5.042)" fill="url(#linear-gradient-3)"/>
  <rect id="矩形_29155" data-name="矩形 29155" width="3" height="6" rx="1.5" transform="translate(15 8.042)" fill="#fff"/>
  <rect id="矩形_29156" data-name="矩形 29156" width="3" height="6" rx="1.5" transform="translate(8 8.042)" fill="#fff"/>
</svg>
